# xmcd
#
# Track frame offsets:
#	150
#	14423
#	29325
#	48061
#	62796
#	78211
#	90367
#	100928
#	112827
#	126076
#	138087
#	152484
#	172888
#	190155
#	200386
#	212599
#	223424
#	246728
#	261609
#	273547
#
# Disc length: 3829 seconds
#
# Revision: 1
# Processed by: cddbd v1.5.1PL0 Copyright (c) Steve Scherf et al.
# Submitted via: audiograbber 1.83.01
#
DISCID=180ef314
DTITLE=Various Artist - Celebrate America
DYEAR=1900
DGENRE=
TTITLE0=Ann Crumb - America the beautiful
TTITLE1=Oscar Brand - American dreamer
TTITLE2=One Word - Coming to America
TTITLE3=Doobie Brothers - Listen to the music
TTITLE4=Josh White Jr - The house I live in
TTITLE5=Lee Greenwood - God bless the USA
TTITLE6=Sgt Barry Sadler - Ballad of the green beret
TTITLE7=Kenny Rogers - Me and Bobby McGee
TTITLE8=Kingston Trio - Where have all the flowers gone
TTITLE9=Ricky Scaggs - Are you proud of America
TTITLE10=Paul Robeson - Shenandoah
TTITLE11=Dennis Walter - Amazing grace
TTITLE12=Carter Family - Will the circle be unbroken
TTITLE13=Arizona Smoke Revue - Foggy Mountain break down
TTITLE14=Oscar Brand - Something to sing about
TTITLE15=Susan McCann - Country roads
TTITLE16=Josh White Jr - Free and equal blues
TTITLE17=David Feder - American tune
TTITLE18=Woody Guthrie - This is your land
TTITLE19=Kate Smith - Star spangled banner
EXTD=
EXTT0=
EXTT1=
EXTT2=
EXTT3=
EXTT4=
EXTT5=
EXTT6=
EXTT7=
EXTT8=
EXTT9=
EXTT10=
EXTT11=
EXTT12=
EXTT13=
EXTT14=
EXTT15=
EXTT16=
EXTT17=
EXTT18=
EXTT19=
PLAYORDER=
